<svg id="bikcraft" xmlns="http://www.w3.org/2000/svg" width="200" height="124" viewBox="0 0 200 124">
  <path id="Path_13" data-name="Path 13" d="M9.248,10.19c3.1-.124,10.677-.375,14.526-1.253-.125,1.63-.373,6.644-.373,16.169v4.261c3.476-2.884,6.332-4.388,9.809-4.388a10.2,10.2,0,0,1,8.939,4.638,19.813,19.813,0,0,1,2.483,10.153c0,11.655-5.462,18.3-16.513,18.3a20.668,20.668,0,0,1-8.69-2.132c-1.49.5-3.476,1.5-5.462,2.132l-.622-.377c.125-3.385.125-9.776.125-18.425V23.225c0-4.011-.125-6.768-.248-9.148C13.1,12.446,12.724,12.2,9,12.2Zm18.87,45.5c4.221,0,6.207-5.14,6.207-14.665a20.87,20.87,0,0,0-1.738-9.275,4.472,4.472,0,0,0-3.973-2.507A5.708,5.708,0,0,0,24.021,32c-.62.878-.868,1.63-.868,11.531,0,8.148.373,8.4.87,9.4A4.468,4.468,0,0,0,28.119,55.687Zm38.237,1.63c-2.608,0-5.214-.253-9.312-.253-4.344,0-6.456.253-8.565.253V55.186c3.476-.126,3.973-.752,4.1-2.132.123-1.5.248-3.884.248-7.771V37.262c0-3.259,0-5.89-.125-7.019s-.622-1.5-3.85-1.378V26.734c4.346-.375,9.56-.5,13.781-1.378-.125,1.63-.248,4.638-.248,11.531v8.649c0,4.011.125,5.765.248,7.52s.622,2.005,3.724,2.38Zm-9.312-46.5c3.23,0,5.091,1.881,5.091,5.264,0,2.884-2.111,4.889-5.339,4.889a4.65,4.65,0,0,1-4.841-4.889,4.946,4.946,0,0,1,5.091-5.264Zm12.54-.628A90.7,90.7,0,0,0,83.117,8.937q-.252,7.768-.25,15.541V40.146c2.36-.628,7.449-6.894,9.435-10.528.373-.752.373-1.129-.62-1.129l-2.731-.251v-2.13c4.594.126,9.312-.126,14.03-.377v2.132c-3.476.377-4.843.628-6.209,1.755a58.4,58.4,0,0,0-5.959,6.267c1.49,3.134,7.7,14.665,10.057,17.8a3.449,3.449,0,0,0,3.1,1.5l1.736.126-.123,2.13a91.17,91.17,0,0,0-13.781.752c-1.49-3.509-5.959-12.032-7.324-14.665-.745-1.378-1.118-1.879-1.615-1.755,0,5.14-.123,7.646.125,11.28.125,1.63.5,2.132,3.85,2.256v2.132c-2.36,0-4.843-.251-8.939-.251-4.843,0-6.952.251-8.815.251V55.31c3.228-.124,3.724-.75,3.85-2.005.123-1.5.246-4.763.246-11.28V25.858c0-5.14,0-9.024-.123-12.283q0-1.128-1.49-1.129H69.458ZM39.665,88.273C37.554,95.041,33.458,98.3,26.629,98.3c-5.836,0-9.56-1.63-12.166-5.14-1.986-2.631-2.98-6.517-2.98-10.9,0-9.652,5.836-17.045,16.513-17.045,6.456,0,11.173,3.008,11.173,7.9A4.686,4.686,0,0,1,34.2,77.87a5.591,5.591,0,0,1-2.483-.626,1.966,1.966,0,0,1-.87-2.256,19.05,19.05,0,0,0,.373-2.633c0-3.132-1.118-4.636-3.476-4.636-3.85,0-5.836,5.641-5.836,13.412,0,3.132.373,6.642,1.49,8.771,1.241,2.884,3.228,4.512,6.207,4.512,3.724,0,6.084-2.13,7.822-7.019Zm7.075-9.148a70.685,70.685,0,0,0-.373-8.775,1.312,1.312,0,0,0-1.49-1.251H42.643V66.967c3.724-.126,8.815-.377,12.415-1.5l.373.251c.248,1.5.5,5.14.622,7.4H56.3c1.617-4.388,3.85-7.9,8.444-7.9a4.7,4.7,0,0,1,4.594,5.013c0,4.137-3.1,5.39-4.346,5.39a2.4,2.4,0,0,1-2.483-1.255c-.62-1.378-.993-2.13-2.233-2.13-1.367,0-2.111,1.253-2.98,3.259A13.424,13.424,0,0,0,56.674,80c0,7.145,0,11.156.125,12.91s.743,2.254,5.709,2.38l-.123,2.132c-3.476-.126-6.581-.253-10.18-.253-3.724,0-6.456.126-9.56.253l.371-2.132c2.98-.126,3.724-.5,3.724-1.755.125-1.755.248-5.14.248-9.024v-5.39h-.248ZM88.827,73.36c0-3.762-1.243-5.767-3.726-5.767-2.854,0-4.219,1.63-4.219,4.638a14.12,14.12,0,0,0,.246,2.382,1.793,1.793,0,0,1-.743,1.879,6.741,6.741,0,0,1-3.476,1.129c-2.36,0-4.346-1.131-4.346-3.886,0-4.011,5.836-8.523,14.03-8.523,6.7,0,9.681,2.757,10.8,4.512a6.342,6.342,0,0,1,.993,3.385V91.532c0,2.132.622,2.633,1.367,2.633.993,0,2.11-1.63,2.606-4.388l2.111,1c-1.118,5.39-4.346,7.646-8.815,7.646-3.85,0-5.959-1.63-6.581-4.889-2.98,3.008-6.082,4.889-9.31,4.889-5.214,0-8.69-3.509-8.69-9.277,0-3.509,1.49-5.515,4.1-6.642,4.219-1.881,10.551-3.76,13.654-6.016V73.358ZM81.005,87.271c0,2.757,1.118,5.765,3.85,5.765,1.986,0,2.854-1.253,3.476-2.507a9.394,9.394,0,0,0,.371-3.008V79c-1.367.878-3.476,1.881-5.091,2.884C82.121,82.885,81.005,84.136,81.005,87.271Zm24.581-20.929,3.973.124V64.46c.125-5.264,1.367-9.15,4.1-11.908a12.21,12.21,0,0,1,9.062-3.76c5.091,0,7.822,2.507,7.822,5.765,0,2.382-1.986,4.011-4.72,4.011a2.357,2.357,0,0,1-2.483-2.507c0-2.631-.371-4.761-2.233-4.761-1.243,0-1.986,1.127-2.237,3.259-.246,2.005.125,5.765.373,11.655h6.084l-.373,2.507-5.711.377c-.125,2.38-.125,6.517-.125,11.4,0,4.638,0,8.773.125,12.032.125,1.63.373,2.256,1.738,2.382a32.793,32.793,0,0,0,3.353.249l-.252,2.132c-2.358,0-6.082-.251-9.31-.251-3.353,0-7.326.251-9.56.251l.125-2.132c3.228-.124,3.724-.5,3.85-1.879.246-2.132.246-5.39.246-9.776V68.972l-4.219-.251.371-2.382Z" transform="translate(8.877 8.815)" fill="#fec63e"/>
  <path id="Path_14" data-name="Path 14" d="M89.728,43.05l-.25,2.358-7.572.5c0,2.608-.125,6.456-.125,11.67,0,5.462,0,9.187.25,11.422.123,1.615.743,2.36,1.986,2.36,2.606,0,4.219-2.856,4.841-5.462h.993l.87,2.854c-1.49,3.6-5.216,6.084-10.679,6.084-2.98,0-5.586-.993-6.827-2.483a6.84,6.84,0,0,1-1.241-4.469c0-5.091.248-16.513.248-21.975l-3.973-.373.248-2.358h3.724c.125-2.36.125-5.091.125-7.574a34.311,34.311,0,0,0,9.31-3.6l.745.125q-.325,5.518-.373,11.048h7.7v-.125Z" transform="translate(68.369 32.41)" fill="#fec63e"/>
  <path id="Path_15" data-name="Path 15" d="M190,10V114H10V10ZM200,0H0V124H200Z" fill="#fec63e"/>
</svg>
